# xmcd
#
# Track frame offsets:
#	183
#	18165
#	36065
#	51178
#	65288
#	86450
#	106523
#	121753
#	143860
#	158080
#	176735
#	191255
#	208078
#	224558
#
# Disc length: 3234
#
# Revision: 6
# Processed by: cddbd v1.5.1PL0 Copyright (c) Steve Scherf et al.
# Submitted via: Kscd 1.3.3
# Normalized: r4:TDELIM( - ),TSWAP
#
DISCID=b60ca00e
DTITLE=Body and Soul - (Neu-Aufnahmen)
DYEAR=1900
DGENRE=
TTITLE0=Motor City All Stars - I Cant't Help Myself
TTITLE1=Bobby Tayler and The Vancouvers - Reach Out I'll Be There
TTITLE2=Contours - Ain't Nothing But A House Party
TTITLE3=Edwin Starr - Breaking Down The Walls Of Heartache
TTITLE4=Fifth Dimension - Love Hangover
TTITLE5=The Monitors - You Are My Destiny
TTITLE6=Mary Wells - My Guy
TTITLE7=The Miracles - Heaven Knows
TTITLE8=Marvelettes - Too Many Fish In The Sea
TTITLE9=The Orginals and The Supremes - Back To Popular Demand
TTITLE10=Rare Earth - Love Is Here And Now You're Gone
TTITLE11=Frankie Gaye - I Heard It Through The Grapevine
TTITLE12=Jimmy Ruffin - Wake Me Up When It's Over
TTITLE13=Martha Reeves - Heatwave
EXTD=von: Karussell\nStereo  849 090-2
EXTT0=
EXTT1=
EXTT2=
EXTT3=
EXTT4=
EXTT5=
EXTT6=
EXTT7=
EXTT8=
EXTT9=
EXTT10=
EXTT11=
EXTT12=
EXTT13=
PLAYORDER=
